<svg width="113" height="41" viewBox="0 0 113 41" fill="none" xmlns="http://www.w3.org/2000/svg">
<g filter="url(#filter0_d_20_163)">
<path d="M15.96 5.952C18.008 5.952 19.6507 6.63467 20.888 8C22.1253 9.344 22.744 11.2 22.744 13.568V24H17.304V14.304C17.304 13.1093 16.9947 12.1813 16.376 11.52C15.7573 10.8587 14.9253 10.528 13.88 10.528C12.8347 10.528 12.0027 10.8587 11.384 11.52C10.7653 12.1813 10.456 13.1093 10.456 14.304V24H4.984V0.32H10.456V8.544C11.0107 7.75467 11.768 7.12533 12.728 6.656C13.688 6.18667 14.7653 5.952 15.96 5.952ZM34.6745 24.256C32.9252 24.256 31.3465 23.8827 29.9385 23.136C28.5518 22.3893 27.4532 21.3227 26.6425 19.936C25.8532 18.5493 25.4585 16.928 25.4585 15.072C25.4585 13.2373 25.8638 11.6267 26.6745 10.24C27.4852 8.832 28.5945 7.75467 30.0025 7.008C31.4105 6.26133 32.9892 5.888 34.7385 5.888C36.4878 5.888 38.0665 6.26133 39.4745 7.008C40.8825 7.75467 41.9918 8.832 42.8025 10.24C43.6132 11.6267 44.0185 13.2373 44.0185 15.072C44.0185 16.9067 43.6025 18.528 42.7705 19.936C41.9598 21.3227 40.8398 22.3893 39.4105 23.136C38.0025 23.8827 36.4238 24.256 34.6745 24.256ZM34.6745 19.52C35.7198 19.52 36.6052 19.136 37.3305 18.368C38.0772 17.6 38.4505 16.5013 38.4505 15.072C38.4505 13.6427 38.0878 12.544 37.3625 11.776C36.6585 11.008 35.7838 10.624 34.7385 10.624C33.6718 10.624 32.7865 11.008 32.0825 11.776C31.3785 12.5227 31.0265 13.6213 31.0265 15.072C31.0265 16.5013 31.3678 17.6 32.0505 18.368C32.7545 19.136 33.6292 19.52 34.6745 19.52ZM69.7055 5.952C71.9242 5.952 73.6842 6.624 74.9855 7.968C76.3082 9.312 76.9695 11.1787 76.9695 13.568V24H71.5295V14.304C71.5295 13.152 71.2202 12.2667 70.6015 11.648C70.0042 11.008 69.1722 10.688 68.1055 10.688C67.0388 10.688 66.1962 11.008 65.5775 11.648C64.9802 12.2667 64.6815 13.152 64.6815 14.304V24H59.2415V14.304C59.2415 13.152 58.9322 12.2667 58.3135 11.648C57.7162 11.008 56.8842 10.688 55.8175 10.688C54.7508 10.688 53.9082 11.008 53.2895 11.648C52.6922 12.2667 52.3935 13.152 52.3935 14.304V24H46.9215V6.144H52.3935V8.384C52.9482 7.63733 53.6735 7.05067 54.5695 6.624C55.4655 6.176 56.4788 5.952 57.6095 5.952C58.9535 5.952 60.1482 6.24 61.1935 6.816C62.2602 7.392 63.0922 8.21333 63.6895 9.28C64.3082 8.29867 65.1508 7.49867 66.2175 6.88C67.2842 6.26133 68.4468 5.952 69.7055 5.952ZM86.2685 0.32V24H80.7965V0.32H86.2685ZM108.474 6.144L97.274 32.48H91.386L95.482 23.392L88.218 6.144H94.33L98.458 17.312L102.554 6.144H108.474Z" fill="black"/>
</g>
<defs>
<filter id="filter0_d_20_163" x="0.983887" y="0.320068" width="111.49" height="40.1599" filterUnits="userSpaceOnUse" color-interpolation-filters="sRGB">
<feFlood flood-opacity="0" result="BackgroundImageFix"/>
<feColorMatrix in="SourceAlpha" type="matrix" values="0 0 0 0 0 0 0 0 0 0 0 0 0 0 0 0 0 0 127 0" result="hardAlpha"/>
<feOffset dy="4"/>
<feGaussianBlur stdDeviation="2"/>
<feComposite in2="hardAlpha" operator="out"/>
<feColorMatrix type="matrix" values="0 0 0 0 0 0 0 0 0 0 0 0 0 0 0 0 0 0 0.25 0"/>
<feBlend mode="normal" in2="BackgroundImageFix" result="effect1_dropShadow_20_163"/>
<feBlend mode="normal" in="SourceGraphic" in2="effect1_dropShadow_20_163" result="shape"/>
</filter>
</defs>
</svg>
